<?xml version="1.0" encoding="UTF-8" standalone="no"?><!DOCTYPE svg PUBLIC "-//W3C//DTD SVG 1.1//EN" "http://www.w3.org/Graphics/SVG/1.1/DTD/svg11.dtd"><!-- Generated by graphviz version 2.40.1 (20161225.0304)
 --><!-- Title: Tree Pages: 1 --><svg xmlns="http://www.w3.org/2000/svg" xmlns:xlink="http://www.w3.org/1999/xlink" width="532pt" height="339pt" viewBox="0.00 0.00 531.70 339.20">
<g id="graph0" class="graph" transform="scale(1 1) rotate(0) translate(4 335.2)">
<title>Tree</title>
<polygon fill="#ffffff" stroke="transparent" points="-4,4 -4,-335.2 527.6998,-335.2 527.6998,4 -4,4"/>
<!-- 0 -->
<g id="node1" class="node">
<title>0</title>
<polygon fill="none" stroke="#000000" points="322.4256,-331.2 195.0884,-331.2 195.0884,-239.2 322.4256,-239.2 322.4256,-331.2"/>
<text text-anchor="middle" x="258.757" y="-314.6" font-family="Helvetica,sans-Serif" font-size="14.00" fill="#000000">Sex &lt;= 0.5</text>
<text text-anchor="middle" x="258.757" y="-297.8" font-family="Helvetica,sans-Serif" font-size="14.00" fill="#000000">gini = 0.486</text>
<text text-anchor="middle" x="258.757" y="-281" font-family="Helvetica,sans-Serif" font-size="14.00" fill="#000000">samples = 571</text>
<text text-anchor="middle" x="258.757" y="-264.2" font-family="Helvetica,sans-Serif" font-size="14.00" fill="#000000">value = [334, 237]</text>
<text text-anchor="middle" x="258.757" y="-247.4" font-family="Helvetica,sans-Serif" font-size="14.00" fill="#000000">class = Dead</text>
</g>
<!-- 1 -->
<g id="node2" class="node">
<title>1</title>
<polygon fill="none" stroke="#000000" points="249.6427,-203.2 129.8713,-203.2 129.8713,-111.2 249.6427,-111.2 249.6427,-203.2"/>
<text text-anchor="middle" x="189.757" y="-186.6" font-family="Helvetica,sans-Serif" font-size="14.00" fill="#000000">Class &lt;= 2.5</text>
<text text-anchor="middle" x="189.757" y="-169.8" font-family="Helvetica,sans-Serif" font-size="14.00" fill="#000000">gini = 0.364</text>
<text text-anchor="middle" x="189.757" y="-153" font-family="Helvetica,sans-Serif" font-size="14.00" fill="#000000">samples = 213</text>
<text text-anchor="middle" x="189.757" y="-136.2" font-family="Helvetica,sans-Serif" font-size="14.00" fill="#000000">value = [51, 162]</text>
<text text-anchor="middle" x="189.757" y="-119.4" font-family="Helvetica,sans-Serif" font-size="14.00" fill="#000000">class = Survives</text>
</g>
<!-- 0&#45;&gt;1 -->
<g id="edge1" class="edge">
<title>0-&gt;1</title>
<path fill="none" stroke="#000000" d="M233.8464,-238.9891C229.1563,-230.2885 224.2093,-221.1115 219.3915,-212.1741"/>
<polygon fill="#000000" stroke="#000000" points="222.457,-210.4848 214.631,-203.3431 216.2953,-213.8064 222.457,-210.4848"/>
<text text-anchor="middle" x="207.4585" y="-223.0921" font-family="Helvetica,sans-Serif" font-size="14.00" fill="#000000">True</text>
</g>
<!-- 4 -->
<g id="node5" class="node">
<title>4</title>
<polygon fill="none" stroke="#000000" points="387.6427,-203.2 267.8713,-203.2 267.8713,-111.2 387.6427,-111.2 387.6427,-203.2"/>
<text text-anchor="middle" x="327.757" y="-186.6" font-family="Helvetica,sans-Serif" font-size="14.00" fill="#000000">Age &lt;= 13.0</text>
<text text-anchor="middle" x="327.757" y="-169.8" font-family="Helvetica,sans-Serif" font-size="14.00" fill="#000000">gini = 0.331</text>
<text text-anchor="middle" x="327.757" y="-153" font-family="Helvetica,sans-Serif" font-size="14.00" fill="#000000">samples = 358</text>
<text text-anchor="middle" x="327.757" y="-136.2" font-family="Helvetica,sans-Serif" font-size="14.00" fill="#000000">value = [283, 75]</text>
<text text-anchor="middle" x="327.757" y="-119.4" font-family="Helvetica,sans-Serif" font-size="14.00" fill="#000000">class = Dead</text>
</g>
<!-- 0&#45;&gt;4 -->
<g id="edge4" class="edge">
<title>0-&gt;4</title>
<path fill="none" stroke="#000000" d="M283.6676,-238.9891C288.3577,-230.2885 293.3047,-221.1115 298.1225,-212.1741"/>
<polygon fill="#000000" stroke="#000000" points="301.2187,-213.8064 302.883,-203.3431 295.057,-210.4848 301.2187,-213.8064"/>
<text text-anchor="middle" x="310.0555" y="-223.0921" font-family="Helvetica,sans-Serif" font-size="14.00" fill="#000000">False</text>
</g>
<!-- 2 -->
<g id="node3" class="node">
<title>2</title>
<polygon fill="none" stroke="#000000" points="117.272,-75.3003 .242,-75.3003 .242,.1003 117.272,.1003 117.272,-75.3003"/>
<text text-anchor="middle" x="58.757" y="-58.6" font-family="Helvetica,sans-Serif" font-size="14.00" fill="#000000">gini = 0.098</text>
<text text-anchor="middle" x="58.757" y="-41.8" font-family="Helvetica,sans-Serif" font-size="14.00" fill="#000000">samples = 136</text>
<text text-anchor="middle" x="58.757" y="-25" font-family="Helvetica,sans-Serif" font-size="14.00" fill="#000000">value = [7, 129]</text>
<text text-anchor="middle" x="58.757" y="-8.2" font-family="Helvetica,sans-Serif" font-size="14.00" fill="#000000">class = Survives</text>
</g>
<!-- 1&#45;&gt;2 -->
<g id="edge2" class="edge">
<title>1-&gt;2</title>
<path fill="none" stroke="#000000" d="M139.109,-110.9595C128.6804,-101.4385 117.7216,-91.4333 107.3672,-81.98"/>
<polygon fill="#000000" stroke="#000000" points="109.6956,-79.3665 99.9506,-75.2088 104.9759,-84.5361 109.6956,-79.3665"/>
</g>
<!-- 3 -->
<g id="node4" class="node">
<title>3</title>
<polygon fill="none" stroke="#000000" points="247.86,-75.3003 135.654,-75.3003 135.654,.1003 247.86,.1003 247.86,-75.3003"/>
<text text-anchor="middle" x="191.757" y="-58.6" font-family="Helvetica,sans-Serif" font-size="14.00" fill="#000000">gini = 0.49</text>
<text text-anchor="middle" x="191.757" y="-41.8" font-family="Helvetica,sans-Serif" font-size="14.00" fill="#000000">samples = 77</text>
<text text-anchor="middle" x="191.757" y="-25" font-family="Helvetica,sans-Serif" font-size="14.00" fill="#000000">value = [44, 33]</text>
<text text-anchor="middle" x="191.757" y="-8.2" font-family="Helvetica,sans-Serif" font-size="14.00" fill="#000000">class = Dead</text>
</g>
<!-- 1&#45;&gt;3 -->
<g id="edge3" class="edge">
<title>1-&gt;3</title>
<path fill="none" stroke="#000000" d="M190.5303,-110.9595C190.6709,-102.5477 190.8179,-93.7581 190.9593,-85.3049"/>
<polygon fill="#000000" stroke="#000000" points="194.4603,-85.266 191.1281,-75.2088 187.4613,-85.1489 194.4603,-85.266"/>
</g>
<!-- 5 -->
<g id="node6" class="node">
<title>5</title>
<polygon fill="none" stroke="#000000" points="385.272,-75.3003 268.242,-75.3003 268.242,.1003 385.272,.1003 385.272,-75.3003"/>
<text text-anchor="middle" x="326.757" y="-58.6" font-family="Helvetica,sans-Serif" font-size="14.00" fill="#000000">gini = 0.492</text>
<text text-anchor="middle" x="326.757" y="-41.8" font-family="Helvetica,sans-Serif" font-size="14.00" fill="#000000">samples = 32</text>
<text text-anchor="middle" x="326.757" y="-25" font-family="Helvetica,sans-Serif" font-size="14.00" fill="#000000">value = [14, 18]</text>
<text text-anchor="middle" x="326.757" y="-8.2" font-family="Helvetica,sans-Serif" font-size="14.00" fill="#000000">class = Survives</text>
</g>
<!-- 4&#45;&gt;5 -->
<g id="edge5" class="edge">
<title>4-&gt;5</title>
<path fill="none" stroke="#000000" d="M327.3704,-110.9595C327.3,-102.5477 327.2265,-93.7581 327.1559,-85.3049"/>
<polygon fill="#000000" stroke="#000000" points="330.655,-85.1792 327.0715,-75.2088 323.6553,-85.2378 330.655,-85.1792"/>
</g>
<!-- 6 -->
<g id="node7" class="node">
<title>6</title>
<polygon fill="none" stroke="#000000" points="523.6427,-75.3003 403.8713,-75.3003 403.8713,.1003 523.6427,.1003 523.6427,-75.3003"/>
<text text-anchor="middle" x="463.757" y="-58.6" font-family="Helvetica,sans-Serif" font-size="14.00" fill="#000000">gini = 0.289</text>
<text text-anchor="middle" x="463.757" y="-41.8" font-family="Helvetica,sans-Serif" font-size="14.00" fill="#000000">samples = 326</text>
<text text-anchor="middle" x="463.757" y="-25" font-family="Helvetica,sans-Serif" font-size="14.00" fill="#000000">value = [269, 57]</text>
<text text-anchor="middle" x="463.757" y="-8.2" font-family="Helvetica,sans-Serif" font-size="14.00" fill="#000000">class = Dead</text>
</g>
<!-- 4&#45;&gt;6 -->
<g id="edge6" class="edge">
<title>4-&gt;6</title>
<path fill="none" stroke="#000000" d="M380.3382,-110.9595C391.1648,-101.4385 402.5418,-91.4333 413.2915,-81.98"/>
<polygon fill="#000000" stroke="#000000" points="415.7931,-84.4409 420.9911,-75.2088 411.1704,-79.1844 415.7931,-84.4409"/>
</g>
</g>
</svg>